# Created By Carrara 5.0

mtllib arrow02.Mtl

# Number of vertices: 56
v 3.769697 0 1.193356
v 3.779322 0.013121 1.246524
v 3.806487 0.050149 1.294299
v 3.84862 0.107583 1.334777
v 3.903155 0.181921 1.36605
v 3.967524 0.269664 1.386211
v 4.039157 0.367309 1.393355
v 4.193466 2.350052 1.193356
v 4.21504 2.368084 1.235636
v 4.246978 2.394778 1.27688
v 4.287 2.428228 1.315179
v 4.332824 2.466528 1.34863
v 4.382169 2.507771 1.375324
v 4.432755 2.550051 1.393355
v 4.193466 2.350052 -1.393355
v 3.769697 0 -1.393355
v -10.247366 2.350052 -1.393355
v -10.247366 4.544525 -1.393355
v 4.140416 4.544525 -1.393355
v 3.652358 6.718557 -1.393355
v 10.247366 3.400007 -1.393355
v 10.247366 3.400007 1.193356
v 10.231738 3.399872 1.246524
v 10.187635 3.399494 1.2943
v 10.119229 3.398907 1.334777
v 10.030688 3.398148 1.36605
v 9.926181 3.397251 1.386211
v 9.80988 3.396254 1.393355
v -10.247366 2.350052 1.193356
v -10.240222 2.357196 1.246524
v -10.22006 2.377358 1.2943
v -10.188787 2.408631 1.334777
v -10.14831 2.449108 1.36605
v -10.100535 2.496884 1.386211
v -10.047367 2.550051 1.393355
v -10.247366 4.544525 1.193356
v -10.240222 4.537381 1.246524
v -10.22006 4.517219 1.2943
v -10.188787 4.485946 1.334777
v -10.14831 4.445468 1.36605
v -10.100535 4.397693 1.386211
v -10.047367 4.344525 1.393355
v 4.140416 4.544525 1.193356
v 4.16375 4.525848 1.234992
v 4.197585 4.498768 1.275848
v 4.239538 4.465189 1.314019
v 4.287228 4.427018 1.347598
v 4.338274 4.386161 1.374679
v 4.390292 4.344525 1.393355
v 3.652358 6.718557 1.193356
v 3.662637 6.705388 1.246524
v 3.691643 6.668221 1.2943
v 3.736636 6.610573 1.334777
v 3.794872 6.535956 1.36605
v 3.863609 6.447885 1.386211
v 3.940102 6.349874 1.393355

# Number of normals: 210
vn -0.975363 0.17588 0.133167
vn -0.984128 0.177461 0
vn 0.460612 -0.877554 0.133172
vn 0.464751 -0.885441 0
vn -0.907424 0.16967 0.384439
vn -0.974652 0.175871 0.138284
vn 0.428186 -0.815776 0.388801
vn 0.460612 -0.877554 0.133173
vn -0.784555 0.151863 0.601175
vn -0.90573 0.169474 0.3885
vn 0.367774 -0.70068 0.611384
vn 0.428186 -0.815776 0.388801
vn -0.614174 0.122604 0.779589
vn -0.783302 0.151687 0.60285
vn 0.284142 -0.541346 0.791333
vn 0.367774 -0.70068 0.611384
vn -0.397696 0.081763 0.913867
vn -0.615715 0.122838 0.778335
vn 0.180697 -0.344262 0.921321
vn 0.284142 -0.541346 0.791333
vn -0.140815 0.030902 0.989554
vn -0.404053 0.082771 0.910983
vn 0.061893 -0.117917 0.991093
vn 0.180697 -0.344262 0.921321
vn -0.151823 0.032652 0.987868
vn 0 0 1
vn 0.061893 -0.117917 0.991093
vn -0.907691 0.169591 0.383843
vn 0.000984 -0.920447 0.390866
vn -0.984128 0.177461 0
vn 0 -1 0
vn -0.830151 0.159838 0.534136
vn 0.001662 -0.84049 0.541825
vn -0.905244 0.169291 0.389711
vn 0.000988 -0.920022 0.391865
vn -0.746134 0.146395 0.649502
vn 0.001909 -0.754345 0.656476
vn -0.827832 0.159523 0.537817
vn 0.001665 -0.840089 0.542446
vn -0.651417 0.128248 0.747803
vn 0.001698 -0.658748 0.752362
vn -0.745033 0.146236 0.6508
vn 0.00191 -0.754169 0.656677
vn -0.534846 0.103282 0.838614
vn 0.001043 -0.543495 0.839412
vn -0.652494 0.12841 0.746835
vn 0.001698 -0.658962 0.752175
vn -0.37804 0.068359 0.923262
vn 0.000005 -0.390955 0.92041
vn -0.539027 0.10393 0.835852
vn 0.00104 -0.544231 0.838934
vn -0.386068 0.069617 0.91984
vn 0 0 1
vn 0 -0.392293 0.91984
vn -0.984128 0.177461 0
vn 0 -1 0
vn 0 0 -1
vn -0.984128 0.177461 0
vn 0 0 -1
vn 0.464751 -0.885441 0
vn 0 0 -1
vn 0 -1 0
vn -1 0 0
vn 0 0 -1
vn -1 0 0
vn 0 1 0
vn 0 0 -1
vn 0 1 0
vn -0.975715 -0.219043 0
vn 0 0 -1
vn -0.975715 -0.219043 0
vn 0.449493 0.893284 0
vn 0 0 -1
vn 0.449493 0.893284 0
vn 0.464751 -0.885441 0
vn 0.460612 -0.877554 0.133177
vn 0.464751 -0.885441 0
vn 0.445489 0.885327 0.133177
vn 0.449493 0.893284 0
vn 0.460612 -0.877554 0.133177
vn 0.445489 0.885327 0.133177
vn 0.428185 -0.815775 0.388804
vn 0.414127 0.823001 0.388803
vn 0.428185 -0.815775 0.388804
vn 0.414127 0.823001 0.388803
vn 0.367774 -0.700681 0.611382
vn 0.3557 0.706888 0.611381
vn 0.367774 -0.700681 0.611382
vn 0.3557 0.706888 0.611381
vn 0.284142 -0.541346 0.791333
vn 0.274813 0.546141 0.791333
vn 0.284142 -0.541346 0.791333
vn 0.274813 0.546141 0.791333
vn 0.180697 -0.344262 0.921321
vn 0.174764 0.347312 0.921321
vn 0.180697 -0.344262 0.921321
vn 0.174764 0.347312 0.921321
vn 0.061892 -0.117916 0.991093
vn 0.05986 0.11896 0.991093
vn 0.061892 -0.117916 0.991093
vn 0.05986 0.11896 0.991093
vn 0 0 1
vn 0 -0.991093 0.133172
vn -0.991093 0 0.13317
vn 0 -1 0
vn -1 0 0
vn 0.000987 -0.92147 0.388448
vn -0.921322 0 0.388801
vn 0.000003 -0.990979 0.134015
vn -0.991093 0 0.13317
vn 0.001689 -0.791964 0.610566
vn -0.791334 0 0.611384
vn 0.000989 -0.921225 0.389029
vn -0.921322 0 0.388801
vn 0.001899 -0.612568 0.790415
vn -0.61138 0 0.791337
vn 0.00169 -0.791815 0.610759
vn -0.791334 0 0.611384
vn 0.001577 -0.39014 0.920754
vn -0.388808 0 0.921319
vn 0.001898 -0.61278 0.790251
vn -0.61138 0 0.791337
vn 0.000846 -0.134003 0.990981
vn -0.133171 0 0.991093
vn 0.001575 -0.390875 0.920443
vn -0.388808 0 0.921319
vn 0.000842 -0.135175 0.990821
vn 0 0 1
vn -0.133171 0 0.991093
vn -0.991093 0 0.13317
vn 0 0.991093 0.133174
vn -1 0 0
vn 0 1 0
vn -0.921322 0 0.388801
vn 0.001049 0.92148 0.388425
vn -0.991093 0 0.13317
vn 0.000003 0.990972 0.134071
vn -0.791334 0 0.611384
vn 0.001795 0.792003 0.610514
vn -0.921322 0 0.388801
vn 0.001051 0.921219 0.389042
vn -0.61138 0 0.791337
vn 0.002018 0.612642 0.790358
vn -0.791334 0 0.611384
vn 0.001796 0.791845 0.61072
vn -0.388808 0 0.921319
vn 0.001676 0.390224 0.920718
vn -0.61138 0 0.791337
vn 0.002018 0.612868 0.790183
vn -0.133171 0 0.991093
vn 0.000899 0.134055 0.990973
vn -0.388808 0 0.921319
vn 0.001673 0.391005 0.920387
vn -0.133171 0 0.991093
vn 0 0 1
vn 0.000895 0.1353 0.990804
vn 0.001054 0.913114 0.407703
vn -0.893058 -0.207286 0.399349
vn 0 1 0
vn -0.975715 -0.219043 0
vn 0.00177 0.83464 0.550793
vn -0.817653 -0.195177 0.541617
vn 0.001058 0.912632 0.408782
vn -0.890126 -0.206804 0.406089
vn 0.002029 0.752118 0.659025
vn -0.737904 -0.179221 0.650675
vn 0.001773 0.834198 0.551461
vn -0.814957 -0.1947 0.545836
vn 0.001805 0.66154 0.749907
vn -0.648799 -0.158023 0.744371
vn 0.00203 0.751928 0.659242
vn -0.736634 -0.178985 0.652176
vn 0.00111 0.552652 0.833411
vn -0.539049 -0.128901 0.832353
vn 0.001804 0.661771 0.749704
vn -0.650007 -0.158255 0.743267
vn 0.000005 0.407826 0.91306
vn -0.390128 -0.087821 0.916563
vn 0.001107 0.553445 0.832885
vn -0.543788 -0.129832 0.829119
vn 0 0.409274 0.912412
vn 0 0 1
vn -0.399335 -0.089648 0.912412
vn 0.445489 0.885327 0.133172
vn 0.449493 0.893284 0
vn -0.967025 -0.217092 0.133169
vn -0.975715 -0.219043 0
vn 0.445489 0.885327 0.133173
vn -0.966216 -0.217056 0.138976
vn 0.414127 0.823001 0.388805
vn -0.899538 -0.208849 0.383684
vn 0.414127 0.823001 0.388805
vn -0.897611 -0.208553 0.38833
vn 0.355701 0.70689 0.611378
vn -0.778378 -0.186624 0.599416
vn 0.355701 0.70689 0.611378
vn -0.77694 -0.186365 0.601358
vn 0.274811 0.546136 0.791337
vn -0.610545 -0.150641 0.777523
vn 0.274811 0.546136 0.791337
vn -0.612281 -0.150978 0.776091
vn 0.174765 0.347313 0.92132
vn -0.39649 -0.100549 0.912516
vn 0.174765 0.347313 0.92132
vn -0.40376 -0.102009 0.90916
vn 0.059859 0.11896 0.991093
vn -0.141106 -0.03802 0.989264
vn 0.059859 0.11896 0.991093
vn -0.153799 -0.040575 0.987269
vn 0 0 1

# Number of texture vertices: 210
vt 0.451206 0.275831
vt 0.451206 0.275831
vt 0.451206 0.275831
vt 0.451206 0.275831
vt 0.449295 0.277455
vt 0.449295 0.277455
vt 0.449295 0.277455
vt 0.449295 0.277455
vt 0.447835 0.280797
vt 0.447835 0.280797
vt 0.447835 0.280797
vt 0.447835 0.280797
vt 0.446868 0.285563
vt 0.446868 0.285563
vt 0.446868 0.285563
vt 0.446868 0.285563
vt 0.446418 0.291462
vt 0.446418 0.291462
vt 0.446418 0.291462
vt 0.446418 0.291462
vt 0.446503 0.298215
vt 0.446503 0.298215
vt 0.446503 0.298215
vt 0.446503 0.298215
vt 0.447132 0.305547
vt 0.447132 0.305547
vt 0.447132 0.305547
vt 0.455875 0.427594
vt 0.455875 0.427594
vt 0.455875 0.427594
vt 0.455875 0.427594
vt 0.454615 0.429353
vt 0.454615 0.429353
vt 0.454615 0.429353
vt 0.454615 0.429353
vt 0.453517 0.431834
vt 0.453517 0.431834
vt 0.453517 0.431834
vt 0.453517 0.431834
vt 0.452625 0.434835
vt 0.452625 0.434835
vt 0.452625 0.434835
vt 0.452625 0.434835
vt 0.451974 0.438167
vt 0.451974 0.438167
vt 0.451974 0.438167
vt 0.451974 0.438167
vt 0.451599 0.441649
vt 0.451599 0.441649
vt 0.451599 0.441649
vt 0.451599 0.441649
vt 0.451529 0.445115
vt 0.451529 0.445115
vt 0.451529 0.445115
vt 0.551056 0.428527
vt 0.551056 0.428527
vt 0.551056 0.428527
vt 0.556348 0.278384
vt 0.556348 0.278384
vt 0.556348 0.278384
vt 0.978491 0.469035
vt 0.978491 0.469035
vt 0.978491 0.469035
vt 0.978491 0.536323
vt 0.978491 0.536323
vt 0.978491 0.536323
vt 0.551665 0.584331
vt 0.551665 0.584331
vt 0.551665 0.584331
vt 0.558004 0.725967
vt 0.558004 0.725967
vt 0.558004 0.725967
vt 0.521509 0.501254
vt 0.521509 0.501254
vt 0.521509 0.501254
vt 0.481549 0.501257
vt 0.481549 0.501257
vt 0.481549 0.501257
vt 0.481549 0.501257
vt 0.480705 0.501254
vt 0.480705 0.501254
vt 0.480705 0.501254
vt 0.480705 0.501254
vt 0.479888 0.501247
vt 0.479888 0.501247
vt 0.479888 0.501247
vt 0.479888 0.501247
vt 0.479127 0.501236
vt 0.479127 0.501236
vt 0.479127 0.501236
vt 0.479127 0.501236
vt 0.478458 0.501222
vt 0.478458 0.501222
vt 0.478458 0.501222
vt 0.478458 0.501222
vt 0.477916 0.501206
vt 0.477916 0.501206
vt 0.477916 0.501206
vt 0.477916 0.501206
vt 0.477544 0.501188
vt 0.477544 0.501188
vt 0.477544 0.501188
vt 0.018451 0.46896
vt 0.018451 0.46896
vt 0.018451 0.46896
vt 0.018451 0.46896
vt 0.019279 0.469176
vt 0.019279 0.469176
vt 0.019279 0.469176
vt 0.019279 0.469176
vt 0.020049 0.469751
vt 0.020049 0.469751
vt 0.020049 0.469751
vt 0.020049 0.469751
vt 0.020732 0.470636
vt 0.020732 0.470636
vt 0.020732 0.470636
vt 0.020732 0.470636
vt 0.021296 0.471781
vt 0.021296 0.471781
vt 0.021296 0.471781
vt 0.021296 0.471781
vt 0.021707 0.473139
vt 0.021707 0.473139
vt 0.021707 0.473139
vt 0.021707 0.473139
vt 0.021932 0.47466
vt 0.021932 0.47466
vt 0.021932 0.47466
vt 0.018451 0.53641
vt 0.018451 0.53641
vt 0.018451 0.53641
vt 0.018451 0.53641
vt 0.019279 0.536195
vt 0.019279 0.536195
vt 0.019279 0.536195
vt 0.019279 0.536195
vt 0.020049 0.535629
vt 0.020049 0.535629
vt 0.020049 0.535629
vt 0.020049 0.535629
vt 0.020732 0.534761
vt 0.020732 0.534761
vt 0.020732 0.534761
vt 0.020732 0.534761
vt 0.021296 0.533639
vt 0.021296 0.533639
vt 0.021296 0.533639
vt 0.021296 0.533639
vt 0.021707 0.532309
vt 0.021707 0.532309
vt 0.021707 0.532309
vt 0.021707 0.532309
vt 0.021932 0.530821
vt 0.021932 0.530821
vt 0.021932 0.530821
vt 0.455339 0.585443
vt 0.455339 0.585443
vt 0.455339 0.585443
vt 0.455339 0.585443
vt 0.454109 0.583529
vt 0.454109 0.583529
vt 0.454109 0.583529
vt 0.454109 0.583529
vt 0.453037 0.580887
vt 0.453037 0.580887
vt 0.453037 0.580887
vt 0.453037 0.580887
vt 0.452165 0.577728
vt 0.452165 0.577728
vt 0.452165 0.577728
vt 0.452165 0.577728
vt 0.451529 0.574251
vt 0.451529 0.574251
vt 0.451529 0.574251
vt 0.451529 0.574251
vt 0.451161 0.570642
vt 0.451161 0.570642
vt 0.451161 0.570642
vt 0.451161 0.570642
vt 0.451089 0.567076
vt 0.451089 0.567076
vt 0.451089 0.567076
vt 0.449739 0.728679
vt 0.449739 0.728679
vt 0.449739 0.728679
vt 0.449739 0.728679
vt 0.447791 0.726974
vt 0.447791 0.726974
vt 0.447791 0.726974
vt 0.447791 0.726974
vt 0.446331 0.723479
vt 0.446331 0.723479
vt 0.446331 0.723479
vt 0.446331 0.723479
vt 0.445396 0.718507
vt 0.445396 0.718507
vt 0.445396 0.718507
vt 0.445396 0.718507
vt 0.445007 0.71236
vt 0.445007 0.71236
vt 0.445007 0.71236
vt 0.445007 0.71236
vt 0.445174 0.70533
vt 0.445174 0.70533
vt 0.445174 0.70533
vt 0.445174 0.70533
vt 0.445902 0.697706
vt 0.445902 0.697706
vt 0.445902 0.697706

g arrow02.obj 
usemtl mat__ACI__7
# Number of Polygons: 51
f 7/25/25 14/52/52 13/48/48 6/21/21 
f 6/22/22 13/50/50 12/44/44 5/17/17 
f 5/18/18 12/46/46 11/40/40 4/13/13 
f 4/14/14 11/42/42 10/36/36 3/9/9 
f 3/10/10 10/38/38 9/32/32 2/5/5 
f 2/6/6 9/34/34 8/28/28 1/1/1 
f 1/3/3 22/76/76 23/80/80 2/8/8 
f 2/7/7 23/82/82 24/84/84 3/12/12 
f 3/11/11 24/86/86 25/88/88 4/16/16 
f 4/15/15 25/90/90 26/92/92 5/20/20 
f 5/19/19 26/94/94 27/96/96 6/24/24 
f 6/23/23 27/98/98 28/100/100 7/27/27 
f 14/54/54 35/127/127 34/123/123 13/49/49 
f 13/51/51 34/125/125 33/119/119 12/45/45 
f 12/47/47 33/121/121 32/115/115 11/41/41 
f 11/43/43 32/117/117 31/111/111 10/37/37 
f 10/39/39 31/113/113 30/107/107 9/33/33 
f 9/35/35 30/109/109 29/103/103 8/29/29 
f 22/78/78 50/184/184 51/188/188 23/81/81 
f 23/83/83 51/190/190 52/192/192 24/85/85 
f 24/87/87 52/194/194 53/196/196 25/89/89 
f 25/91/91 53/198/198 54/200/200 26/93/93 
f 26/95/95 54/202/202 55/204/204 27/97/97 
f 27/99/99 55/206/206 56/208/208 28/101/101 
f 35/129/129 42/154/154 41/150/150 34/124/124 
f 34/126/126 41/152/152 40/146/146 33/120/120 
f 33/122/122 40/148/148 39/142/142 32/116/116 
f 32/118/118 39/144/144 38/138/138 31/112/112 
f 31/114/114 38/140/140 37/134/134 30/108/108 
f 30/110/110 37/136/136 36/130/130 29/104/104 
f 42/156/156 49/181/181 48/177/177 41/151/151 
f 41/153/153 48/179/179 47/173/173 40/147/147 
f 40/149/149 47/175/175 46/169/169 39/143/143 
f 39/145/145 46/171/171 45/165/165 38/139/139 
f 38/141/141 45/167/167 44/161/161 37/135/135 
f 37/137/137 44/163/163 43/157/157 36/131/131 
f 49/183/183 56/209/209 55/207/207 48/178/178 
f 48/180/180 55/205/205 54/203/203 47/174/174 
f 47/176/176 54/201/201 53/199/199 46/170/170 
f 46/172/172 53/197/197 52/195/195 45/166/166 
f 45/168/168 52/193/193 51/191/191 44/162/162 
f 44/164/164 51/189/189 50/186/186 43/158/158 
f 1/2/2 8/30/30 15/55/55 16/58/58 
f 15/57/57 17/61/61 18/64/64 19/67/67 20/70/70 21/73/73 16/59/59 
f 22/77/77 1/4/4 16/60/60 21/75/75 
f 8/31/31 29/105/105 17/62/62 15/56/56 
f 29/106/106 36/132/132 18/65/65 17/63/63 
f 36/133/133 43/159/159 19/68/68 18/66/66 
f 50/185/185 22/79/79 21/74/74 20/72/72 
f 43/160/160 50/187/187 20/71/71 19/69/69 
f 49/182/182 42/155/155 35/128/128 14/53/53 7/26/26 28/102/102 56/210/210 
